#!OML:ASF H:\ManfredETheater\Project 1\Capture day 1\Session 1\subject.ASF
:FULLY-SPECIFIED
:DEGREES
77
root 9.15394 23.3116 8.42585 -183.601 -28.0152 183.996
lowerback 24.5774 -0.271642 -3.65393
upperback 5.0916 -1.82472 3.74073
thorax -7.80343 -1.14619 6.8689
lowerneck -10.3839 -2.70626 -4.99704
upperneck 22.573 -3.6454 -0.533687
head 8.85021 -2.52358 0.21831
rclavicle 7.07673e-014 -2.74323e-014
rhumerus -5.15107 6.84344 -43.1579
rradius 55.0985
rwrist 3.17959
rhand -20.6767 0.560291
rfingers 7.12502
rthumb 5.68645 -29.3434
lclavicle 7.07673e-014 -2.74323e-014
lhumerus -7.61223 3.181 58.6604
lradius 76.3278
lwrist -2.84276
lhand -18.9242 -11.2009
lfingers 7.12502
lthumb 7.37832 18.6504
rfemur -82.7179 -13.5697 19.5616
rtibia 82.5603
rfoot -14.1353 -7.58864
rtoes -26.4997
lfemur -17.6813 3.34667 -23.7697
ltibia 69.858
lfoot 21.304 -11.4946
ltoes 9.93414
78
root 9.08352 23.5733 8.09185 -184.522 -28.2181 184.982
lowerback 25.4343 -0.0931682 -2.83474
upperback 5.48769 -1.48467 4.0593
thorax -7.85969 -1.05161 6.68068
lowerneck -10.0621 -2.8656 -5.00666
upperneck 22.4097 -3.88149 -0.551962
head 8.74016 -2.63267 0.196836
rclavicle 8.94531e-014 -7.5737e-014
rhumerus -4.94629 5.10258 -45.2379
rradius 51.9875
rwrist 3.2146
rhand -20.7727 0.374226
rfingers 7.12502
rthumb 5.59381 -29.5319
lclavicle 8.94531e-014 -7.5737e-014
lhumerus -8.37976 4.57165 60.5011
lradius 72.6541
lwrist -3.36044
lhand -18.9376 -11.5397
lfingers 7.12502
lthumb 7.36534 18.3121
rfemur -80.771 -13.3449 20.7912
rtibia 80.3473
rfoot -14.2578 -7.11532
rtoes -27.0091
lfemur -20.2393 4.70838 -22.8869
ltibia 75.5584
lfoot 19.2921 -12.283
ltoes 8.01355
79
root 9.01653 23.8252 7.75736 -185.474 -28.4442 186.16
lowerback 26.2758 0.0292498 -1.82434
upperback 5.85248 -1.15738 4.37046
thorax -7.93234 -0.966058 6.37137
lowerneck -9.77418 -3.03423 -4.95428
upperneck 22.2301 -4.14597 -0.513814
head 8.63121 -2.74198 0.181755
rclavicle -2.09718e-014 -2.18663e-015
rhumerus -4.92629 3.45802 -47.2139
rradius 49.1549
rwrist 3.07011
rhand -20.7779 0.167192
rfingers 7.12502
rthumb 5.58883 -29.7391
lclavicle -2.09718e-014 -2.18663e-015
lhumerus -9.01757 5.7267 61.992
lradius 69.0802
lwrist -3.50672
lhand -18.9388 -11.8323
lfingers 7.12502
lthumb 7.36426 18.0196
rfemur -78.8382 -13.1043 22.0626
rtibia 78.1646
rfoot -14.4114 -6.5887
rtoes -27.6353
lfemur -22.9479 6.1117 -21.802
ltibia 81.0454
lfoot 17.2146 -12.9912
ltoes 6.0988
80
root 8.95449 24.063 7.42073 -186.36 -28.7164 187.386
lowerback 27.0799 0.103935 -0.762793
upperback 6.17656 -0.862614 4.6347
thorax -8.01439 -0.893626 5.98449
lowerneck -9.53112 -3.21092 -4.82402
upperneck 22.0301 -4.43584 -0.424824
head 8.52337 -2.84939 0.16863
rclavicle -2.33572e-014 -1.39149e-014
rhumerus -5.09337 1.9288 -49.0994
rradius 46.6285
rwrist 2.82451
rhand -20.6972 -0.0925038
rfingers 7.12502
rthumb 5.66667 -29.9967
lclavicle -2.33572e-014 -1.39149e-014
lhumerus -9.54483 6.55287 63.1267
lradius 65.6552
lwrist -3.07816
lhand -18.9181 -12.0171
lfingers 7.12502
lthumb 7.38419 17.8341
rfemur -77.0063 -12.8648 23.2597
rtibia 76.0007
rfoot -14.5168 -6.07303
rtoes -28.259
lfemur -25.8356 7.51453 -20.6859
ltibia 86.231
lfoot 15.1393 -13.6164
ltoes 4.25503
81
root 8.89794 24.2836 7.08042 -187.099 -29.0423 188.542
lowerback 27.8174 0.13977 0.214554
upperback 6.46348 -0.623624 4.84314
thorax -8.085 -0.84187 5.59671
lowerneck -9.36387 -3.38566 -4.67617
upperneck 21.8036 -4.72336 -0.279139
head 8.42157 -2.94603 0.171442
rclavicle 1.21259e-014 4.85035e-014
rhumerus -5.36016 0.563706 -50.8869
rradius 44.3935
rwrist 2.56222
rhand -20.5311 -0.407065
rfingers 7.12502
rthumb 5.82709 -30.3069
lclavicle 1.21259e-014 4.85035e-014
lhumerus -9.99558 7.07549 63.9468
lradius 62.4266
lwrist -1.95455
lhand -18.8626 -12.0642
lfingers 7.12502
lthumb 7.43782 17.785
rfemur -75.3706 -12.6257 24.2964
rtibia 73.9741
rfoot -14.6109 -5.6532
rtoes -28.8082
lfemur -28.9416 8.88779 -19.6985
ltibia 91.1413
lfoot 13.034 -14.1456
ltoes 2.60536
82
root 8.84509 24.5321 6.75138 -187.642 -29.4336 189.557
lowerback 28.4754 0.150624 1.03405
upperback 6.7128 -0.443288 4.98735
thorax -8.14229 -0.809015 5.24337
lowerneck -9.29093 -3.55874 -4.53096
upperneck 21.5583 -5.0048 -0.076275
head 8.33249 -3.03203 0.193081
rclavicle 6.73383e-014 -8.94531e-015
rhumerus -5.70181 -0.655957 -52.5951
rradius 42.4367
rwrist 2.40178
rhand -20.3631 -0.703554
rfingers 7.12502
rthumb 5.98926 -30.5989
lclavicle 6.73383e-014 -8.94531e-015
lhumerus -10.3814 7.33167 64.5027
lradius 59.4291
lwrist -0.171822
lhand -18.777 -11.9858
lfingers 7.12502
lthumb 7.52044 17.8605
rfemur -73.6821 -12.4145 25.1183
rtibia 71.9285
rfoot -14.7986 -5.37686
rtoes -29.1851
lfemur -32.1676 10.1694 -18.9908
ltibia 95.4926
lfoot 11.0882 -14.4931
ltoes 1.29026
